<?xml version="1.0" encoding="UTF-8" ?>
<!DOCTYPE svg PUBLIC "-//W3C//DTD SVG 1.1//EN" "http://www.w3.org/Graphics/SVG/1.1/DTD/svg11.dtd">
<svg width="1024pt" height="1366pt" viewBox="0 0 1024 1366" version="1.1" xmlns="http://www.w3.org/2000/svg">
<g id="#ffffffff">
<path fill="#ffffff" opacity="1.00" d=" M 256.07 156.12 C 266.43 145.84 279.36 137.45 293.98 135.10 C 307.11 132.78 320.79 136.14 332.11 142.94 C 346.69 151.59 357.92 164.84 366.96 178.98 C 381.52 202.21 390.77 228.38 397.06 254.95 C 401.83 275.26 404.86 295.97 406.30 316.78 C 437.98 297.13 474.86 286.29 512.02 284.34 C 549.16 286.30 586.03 297.13 617.70 316.78 C 620.70 276.23 628.86 235.51 646.28 198.55 C 654.02 182.46 663.70 167.04 676.64 154.59 C 686.94 144.77 699.74 136.91 714.03 134.93 C 728.09 132.73 742.54 137.08 754.22 144.89 C 769.57 155.10 781.08 170.07 790.22 185.87 C 808.63 218.38 818.22 255.14 823.39 291.93 C 829.29 336.54 828.65 382.16 820.26 426.41 C 843.91 446.03 863.21 470.66 877.40 497.88 C 847.97 497.87 818.55 497.92 789.12 497.86 C 780.31 487.44 769.00 479.43 757.10 472.91 C 739.84 463.57 720.84 457.49 701.39 454.94 C 686.01 453.03 670.06 453.27 655.24 458.20 C 653.46 458.89 650.56 459.36 650.05 456.85 C 641.19 425.87 620.38 399.45 595.33 379.72 C 575.71 364.44 552.82 352.57 528.09 348.58 C 520.13 347.12 512.03 347.82 504.00 347.68 C 485.25 349.04 467.23 355.73 450.91 364.84 C 425.66 379.19 403.65 399.60 388.35 424.36 C 382.06 434.46 377.31 445.46 373.95 456.86 C 373.54 458.98 371.08 459.08 369.46 458.39 C 352.29 452.64 333.70 452.92 316.03 455.94 C 294.34 459.74 273.29 467.79 255.01 480.13 C 247.57 485.30 240.36 491.05 234.71 498.20 C 205.26 498.47 175.80 498.32 146.35 498.39 C 160.47 471.12 179.71 446.40 203.37 426.76 L 203.61 426.18 C 193.98 373.34 194.41 318.63 205.04 265.97 C 209.46 244.71 215.68 223.75 224.59 203.92 C 232.50 186.50 242.47 169.71 256.07 156.12 M 279.90 228.93 C 271.39 239.81 266.23 252.86 262.13 265.93 C 255.44 287.96 252.43 310.95 251.28 333.90 C 250.75 354.89 251.11 375.98 254.32 396.77 C 282.82 385.57 314.90 382.99 344.57 390.99 C 345.95 385.41 348.67 380.31 350.44 374.89 C 351.49 361.63 351.55 348.29 350.85 335.01 C 349.58 309.39 345.80 283.68 337.33 259.39 C 333.03 247.41 327.59 235.50 318.95 225.98 C 314.08 220.74 307.51 216.18 300.06 216.43 C 291.67 216.75 284.89 222.69 279.90 228.93 M 705.99 225.00 C 696.19 235.27 690.40 248.58 685.82 261.83 C 677.97 285.42 674.36 310.25 673.15 335.03 C 672.45 348.31 672.50 361.66 673.56 374.92 C 675.35 380.32 678.03 385.44 679.45 391.00 C 709.11 382.96 741.19 385.60 769.68 396.77 C 771.91 381.31 773.09 365.69 772.86 350.07 C 773.20 329.27 771.28 308.44 767.35 288.02 C 763.68 269.96 758.50 251.86 748.98 235.93 C 743.97 227.95 737.50 219.78 728.07 217.04 C 719.84 214.69 711.56 219.18 705.99 225.00 Z" />
<path fill="#ffffff" opacity="1.00" d=" M 85.28 508.95 C 88.84 508.47 92.44 508.83 96.01 508.83 C 142.03 509.42 188.05 508.96 234.07 509.09 C 291.99 509.08 349.90 509.10 407.82 509.10 C 461.55 509.38 515.29 509.45 569.02 509.28 C 691.96 508.68 814.93 508.59 937.86 508.58 C 943.29 512.72 944.60 520.03 946.23 526.28 C 946.17 530.54 947.25 534.72 947.23 538.98 C 947.43 545.89 946.42 552.80 944.74 559.50 C 944.02 561.56 943.58 564.70 940.81 564.79 C 928.27 566.01 915.65 566.17 903.07 566.75 C 899.79 566.97 896.19 566.48 893.45 568.66 C 893.25 577.45 894.27 586.21 894.01 595.01 C 894.81 602.64 894.21 610.32 894.88 617.96 C 894.89 619.18 894.60 621.29 892.99 621.31 C 881.01 622.38 868.96 622.24 856.96 623.07 C 857.08 638.04 856.87 653.02 857.08 667.99 C 857.20 671.09 858.70 675.88 854.86 677.34 C 849.25 677.80 843.59 677.14 838.00 677.89 C 828.15 678.17 818.30 677.85 808.46 678.06 C 808.56 694.04 808.43 710.03 808.49 726.01 C 808.60 728.39 807.98 730.70 807.23 732.94 C 744.19 733.97 681.14 733.31 618.10 733.50 C 616.59 714.15 615.52 694.76 614.18 675.40 C 600.45 676.56 586.69 677.28 572.96 678.44 C 570.73 678.65 568.39 678.68 566.45 677.38 C 566.27 674.79 566.27 672.19 566.32 669.61 C 566.96 664.72 565.72 659.88 565.87 655.00 C 566.29 644.16 565.19 633.34 565.50 622.50 C 560.68 622.49 555.85 622.34 551.06 622.89 C 544.40 623.17 537.73 622.88 531.07 623.04 C 530.64 622.33 529.77 620.91 529.34 620.20 C 528.26 613.14 529.66 605.99 528.65 598.92 C 527.66 591.60 529.59 584.24 528.26 576.94 C 528.05 574.77 527.95 572.61 527.87 570.45 C 517.29 570.50 506.71 570.50 496.13 570.44 C 496.08 574.39 495.49 578.31 495.54 582.27 C 495.72 588.07 495.95 593.88 495.53 599.68 C 494.63 605.75 495.38 611.89 495.04 618.00 C 495.10 619.92 493.91 621.46 492.98 623.04 C 486.31 622.88 479.63 623.17 472.96 622.89 C 468.16 622.35 463.33 622.49 458.51 622.50 C 458.59 629.65 458.49 636.80 458.14 643.94 C 457.80 649.60 458.59 655.30 457.75 660.94 C 456.37 666.20 457.25 671.64 457.61 676.97 L 457.60 677.19 C 455.73 678.88 453.26 678.58 450.99 678.44 C 437.27 677.28 423.52 676.54 409.81 675.41 C 408.47 694.79 407.46 714.19 405.85 733.55 C 375.92 733.44 345.99 733.53 316.06 733.50 C 301.37 733.68 286.66 733.06 271.99 733.97 C 267.33 733.94 262.67 733.97 258.01 733.97 C 244.29 732.94 230.52 734.03 216.80 733.01 C 216.04 730.76 215.39 728.44 215.51 726.05 C 215.56 710.05 215.44 694.06 215.54 678.06 C 205.69 677.85 195.83 678.17 185.99 677.89 C 180.41 677.15 174.77 677.78 169.19 677.35 C 165.31 675.95 166.77 671.16 166.91 668.07 C 167.13 653.07 166.91 638.07 167.04 623.07 C 155.06 622.24 143.03 622.38 131.07 621.31 C 128.46 620.84 129.13 617.30 129.30 615.35 C 129.75 608.57 129.21 601.77 129.99 595.01 C 129.71 586.18 130.79 577.39 130.52 568.56 C 116.03 567.83 101.56 566.84 87.09 565.77 C 84.36 565.50 80.69 565.06 80.02 561.82 C 77.74 554.81 76.75 547.36 76.76 540.00 C 76.66 535.34 77.83 530.78 77.80 526.13 C 79.22 520.05 80.87 513.62 85.28 508.95 M 183.49 566.36 C 183.24 582.23 183.50 598.11 183.36 613.98 C 183.15 615.51 184.27 617.26 185.96 617.13 C 201.64 617.14 217.34 617.21 233.03 617.07 C 234.37 616.88 235.61 617.24 236.68 618.05 C 235.99 634.04 236.64 650.08 236.35 666.09 C 236.09 667.85 236.73 670.14 238.90 670.13 C 252.94 670.14 266.98 670.17 281.01 670.12 C 284.01 670.08 287.07 670.27 290.02 669.59 C 291.80 668.85 291.59 666.65 291.65 665.08 C 291.59 649.39 291.74 633.70 291.58 618.01 C 291.83 616.01 289.84 614.61 288.00 614.82 C 272.99 614.67 257.99 614.59 242.99 614.67 C 241.54 614.70 240.10 614.51 238.69 614.19 C 238.53 597.80 238.76 581.40 238.58 565.01 C 238.81 563.06 236.89 561.60 235.06 561.82 C 219.05 561.67 203.03 561.55 187.03 561.69 C 184.27 561.36 183.30 564.13 183.49 566.36 M 622.49 566.39 C 622.24 582.21 622.50 598.04 622.36 613.86 C 622.12 615.47 623.16 617.12 624.91 617.13 C 640.62 617.13 656.34 617.21 672.05 617.07 C 673.37 616.89 674.63 617.24 675.68 618.07 C 674.98 634.03 675.64 650.04 675.35 666.03 C 675.11 667.77 675.66 670.08 677.84 670.13 C 693.55 670.13 709.27 670.21 724.99 670.07 C 727.14 670.03 730.72 670.04 730.56 666.98 C 730.76 651.65 730.57 636.31 730.66 620.98 C 730.57 619.29 730.81 617.51 730.08 615.94 C 728.96 614.91 727.42 614.70 725.98 614.78 C 711.63 614.71 697.29 614.56 682.94 614.67 C 681.17 614.70 679.41 614.62 677.70 614.19 C 677.52 597.80 677.77 581.40 677.58 565.00 C 677.82 563.00 675.81 561.59 673.96 561.82 C 657.99 561.67 642.01 561.55 626.04 561.69 C 623.27 561.34 622.29 564.15 622.49 566.39 Z" />
<path fill="#ffffff" opacity="1.00" d=" M 900.50 578.40 C 901.30 578.36 902.89 578.28 903.69 578.24 C 912.02 631.37 903.94 688.32 875.06 734.31 C 888.78 752.57 898.26 773.73 904.61 795.60 C 917.36 840.29 918.52 888.09 909.22 933.55 C 902.54 964.69 890.89 995.58 870.45 1020.39 C 895.54 1055.72 907.39 1099.85 905.15 1142.99 C 903.95 1162.28 899.76 1181.61 890.95 1198.91 C 889.79 1201.06 888.69 1203.70 886.08 1204.38 C 872.66 1209.42 858.27 1211.43 844.00 1211.62 C 834.54 1211.23 824.78 1210.61 815.97 1206.85 C 814.03 1206.16 813.75 1203.62 814.62 1202.01 C 830.97 1166.12 830.70 1124.37 819.49 1087.05 C 813.14 1066.13 803.30 1046.17 789.79 1028.94 C 788.27 1026.71 785.14 1024.01 787.25 1021.20 C 800.57 1004.11 810.36 984.47 817.43 964.04 C 832.06 921.03 835.96 874.44 829.18 829.55 C 824.42 799.61 814.62 769.67 795.76 745.54 L 795.26 744.86 C 801.56 744.78 808.06 745.03 814.15 743.12 C 816.73 742.33 817.90 739.58 817.75 737.06 C 817.72 721.19 819.15 705.35 819.24 689.48 C 827.16 689.41 835.12 689.80 843.03 689.02 C 850.06 688.44 857.45 690.70 864.24 688.18 C 867.98 686.83 868.24 682.34 868.27 678.98 C 868.15 664.03 867.65 649.07 867.93 634.12 C 876.96 633.46 886.02 633.61 895.06 632.96 C 898.41 632.80 900.84 629.63 901.05 626.45 C 901.49 618.98 900.68 611.51 900.76 604.04 C 900.82 595.49 901.03 586.94 900.50 578.40 Z" />
<path fill="#ffffff" opacity="1.00" d=" M 119.68 579.78 C 120.73 579.72 121.78 579.66 122.83 579.60 C 122.75 594.74 123.41 609.88 123.34 625.03 C 123.35 627.35 123.37 629.96 125.01 631.79 C 127.31 634.15 130.86 634.21 133.93 634.22 C 141.77 634.13 149.59 635.07 157.43 634.88 C 157.44 650.55 158.46 666.19 158.71 681.86 C 158.88 685.04 159.78 689.85 163.91 689.74 C 178.20 690.28 192.51 689.80 206.80 689.47 C 206.98 705.66 207.63 721.84 208.11 738.03 C 207.92 741.13 209.47 744.83 212.94 745.23 C 218.23 745.45 223.51 744.74 228.81 744.99 C 216.84 759.71 208.61 777.13 202.86 795.12 C 190.63 834.04 188.98 875.79 194.88 916.00 C 200.68 953.54 213.32 990.92 236.77 1021.24 C 238.51 1023.33 236.66 1025.72 235.34 1027.46 C 218.77 1048.26 207.41 1072.99 201.36 1098.83 C 193.52 1132.74 194.65 1169.59 209.22 1201.58 C 210.18 1203.32 210.15 1206.12 207.96 1206.89 C 199.19 1210.60 189.49 1211.23 180.08 1211.62 C 166.19 1211.46 152.22 1209.52 139.10 1204.83 C 137.23 1204.21 135.30 1203.34 134.44 1201.45 C 128.46 1190.73 124.58 1178.94 122.02 1166.98 C 117.21 1143.63 117.62 1119.36 121.97 1095.98 C 127.05 1068.96 137.52 1042.81 153.55 1020.39 C 134.04 996.74 122.55 967.46 115.72 937.84 C 106.47 896.41 106.32 852.94 115.34 811.46 C 121.46 783.93 131.94 756.98 148.94 734.28 C 125.93 697.75 116.10 653.91 117.32 611.01 C 117.29 600.55 119.02 590.17 119.68 579.78 Z" />
<path fill="#ffffff" opacity="1.00" d=" M 458.18 696.22 C 463.71 685.83 474.67 678.91 486.08 676.85 C 488.69 677.56 489.58 680.52 489.36 682.95 C 489.19 690.55 492.31 699.02 499.56 702.45 C 504.61 705.20 510.46 704.21 515.95 704.42 C 521.98 704.49 528.11 701.46 531.26 696.23 C 533.95 692.03 534.65 686.94 534.67 682.05 C 534.43 679.64 536.21 676.37 539.04 677.06 C 550.68 679.54 561.87 687.03 566.73 698.17 C 570.05 705.66 569.29 714.80 564.60 721.55 C 559.42 729.29 550.57 733.74 541.63 735.52 C 540.98 742.36 541.08 749.27 539.94 756.06 C 538.71 765.38 530.35 772.56 521.40 774.27 C 513.94 775.62 506.07 775.58 498.82 773.23 C 491.87 770.59 485.62 764.68 484.26 757.15 C 482.89 750.01 483.05 742.72 482.37 735.52 C 473.04 733.68 463.78 728.86 458.73 720.52 C 454.19 713.27 454.15 703.69 458.18 696.22 Z" />
<path fill="#ffffff" opacity="1.00" d=" M 346.24 745.09 C 366.31 745.15 386.38 744.95 406.45 745.18 C 405.72 749.10 406.33 753.13 407.44 756.92 C 411.26 769.70 419.66 780.71 429.77 789.20 C 443.42 797.97 459.96 801.06 475.96 801.71 C 484.65 801.97 493.30 803.10 502.01 802.88 C 513.66 802.68 525.34 803.33 536.97 802.33 C 548.39 801.55 559.97 801.62 571.12 798.70 C 580.04 796.33 589.22 793.42 596.43 787.43 C 602.15 781.77 607.80 775.78 611.58 768.60 C 615.34 761.43 618.87 753.40 617.56 745.13 C 637.61 744.88 657.67 745.09 677.73 745.00 C 677.88 765.30 671.88 785.66 660.43 802.45 C 646.24 823.45 624.46 838.31 601.05 847.35 C 572.81 858.36 542.15 861.58 512.02 860.80 C 477.98 861.71 443.04 857.42 412.03 842.62 C 394.38 834.24 378.24 822.19 366.46 806.50 C 353.18 788.99 346.14 767.01 346.24 745.09 Z" />
<path fill="#ffffff" opacity="1.00" d=" M 409.16 907.12 C 411.25 906.42 413.04 908.36 414.92 909.02 C 426.67 914.28 439.32 917.15 451.89 919.75 C 467.45 922.69 483.12 925.72 499.02 925.84 C 516.85 925.84 534.81 926.51 552.45 923.30 C 572.98 919.56 594.14 916.53 613.01 907.12 C 614.49 906.54 616.33 907.47 617.25 908.68 C 624.01 920.39 626.45 934.66 623.39 947.89 C 622.09 953.21 619.48 958.68 614.77 961.75 C 581.74 972.79 546.62 974.85 512.08 976.11 C 477.48 974.86 442.30 972.81 409.22 961.74 C 404.48 958.64 401.88 953.13 400.58 947.78 C 397.57 934.58 400.00 920.36 406.75 908.67 C 407.35 907.83 408.15 907.32 409.16 907.12 Z" />
</g>
<g id="#000000ff">
<path fill="#000000" opacity="1.00" d=" M 94.41 499.35 C 95.41 498.44 96.80 498.53 98.06 498.49 C 114.16 498.38 130.25 498.40 146.35 498.39 C 175.80 498.32 205.26 498.47 234.71 498.20 C 308.80 498.22 382.89 498.19 456.98 497.91 C 567.70 497.87 678.41 497.93 789.12 497.86 C 818.55 497.92 847.97 497.87 877.40 497.88 C 889.90 497.87 902.41 497.89 914.92 497.83 C 920.27 497.55 926.05 498.26 930.38 501.70 C 932.82 503.63 935.33 505.59 937.20 508.12 C 921.78 508.21 906.38 508.27 890.96 508.44 C 871.65 507.85 852.32 508.41 833.00 508.16 C 819.65 508.35 806.27 507.78 792.94 508.55 C 690.63 508.58 588.32 508.74 486.01 508.87 C 459.94 509.01 433.87 508.59 407.82 509.10 C 349.90 509.10 291.99 509.08 234.07 509.09 C 188.05 508.96 142.03 509.42 96.01 508.83 C 92.44 508.83 88.84 508.47 85.28 508.95 C 87.41 505.02 90.80 501.91 94.41 499.35 Z" />
<path fill="#000000" opacity="1.00" d=" M 76.99 550.91 C 75.69 542.71 75.74 534.18 77.80 526.13 C 77.83 530.78 76.66 535.34 76.76 540.00 C 76.75 547.36 77.74 554.81 80.02 561.82 C 80.69 565.06 84.36 565.50 87.09 565.77 C 101.56 566.84 116.03 567.83 130.52 568.56 C 130.79 577.39 129.71 586.18 129.99 595.01 C 129.21 601.77 129.75 608.57 129.30 615.35 C 129.13 617.30 128.46 620.84 131.07 621.31 C 143.03 622.38 155.06 622.24 167.04 623.07 C 166.91 638.07 167.13 653.07 166.91 668.07 C 166.77 671.16 165.31 675.95 169.19 677.35 C 174.77 677.78 180.41 677.15 185.99 677.89 C 195.83 678.17 205.69 677.85 215.54 678.06 C 215.44 694.06 215.56 710.05 215.51 726.05 C 215.39 728.44 216.04 730.76 216.80 733.01 C 230.52 734.03 244.29 732.94 258.01 733.97 C 262.67 733.97 267.33 733.94 271.99 733.97 C 286.66 733.06 301.37 733.68 316.06 733.50 C 345.99 733.53 375.92 733.44 405.85 733.55 C 407.46 714.19 408.47 694.79 409.81 675.41 C 423.52 676.54 437.27 677.28 450.99 678.44 C 453.26 678.58 455.73 678.88 457.60 677.19 C 456.99 681.46 458.71 686.33 456.01 690.10 C 440.62 689.27 425.24 688.07 409.87 686.89 C 408.80 701.60 407.92 716.33 406.94 731.05 C 406.46 735.75 407.30 740.51 406.45 745.18 C 386.38 744.95 366.31 745.15 346.24 745.09 C 324.15 745.09 302.06 745.08 279.97 745.10 C 272.01 745.81 264.01 745.43 256.03 745.47 C 246.98 744.62 237.88 745.47 228.81 744.99 C 223.51 744.74 218.23 745.45 212.94 745.23 C 209.47 744.83 207.92 741.13 208.11 738.03 C 207.63 721.84 206.98 705.66 206.80 689.47 C 192.51 689.80 178.20 690.28 163.91 689.74 C 159.78 689.85 158.88 685.04 158.71 681.86 C 158.46 666.19 157.44 650.55 157.43 634.88 C 149.59 635.07 141.77 634.13 133.93 634.22 C 130.86 634.21 127.31 634.15 125.01 631.79 C 123.37 629.96 123.35 627.35 123.34 625.03 C 123.41 609.88 122.75 594.74 122.83 579.60 L 122.83 579.14 C 120.25 579.17 117.67 579.60 115.10 579.27 C 105.72 578.51 96.32 577.96 86.93 577.28 C 84.46 576.99 81.10 576.65 80.22 573.85 C 77.59 566.53 76.84 558.65 76.99 550.91 Z" />
<path fill="#000000" opacity="1.00" d=" M 946.23 526.28 C 948.59 534.54 948.10 543.52 947.00 551.99 C 947.08 559.58 946.30 567.37 943.49 574.48 C 942.98 575.99 941.33 576.29 939.96 576.43 C 927.89 577.41 915.78 577.70 903.69 578.24 C 902.89 578.28 901.30 578.36 900.50 578.40 C 901.03 586.94 900.82 595.49 900.76 604.04 C 900.68 611.51 901.49 618.98 901.05 626.45 C 900.84 629.63 898.41 632.80 895.06 632.96 C 886.02 633.61 876.96 633.46 867.93 634.12 C 867.65 649.07 868.15 664.03 868.27 678.98 C 868.24 682.34 867.98 686.83 864.24 688.18 C 857.45 690.70 850.06 688.44 843.03 689.02 C 835.12 689.80 827.16 689.41 819.24 689.48 C 819.15 705.35 817.72 721.19 817.75 737.06 C 817.90 739.58 816.73 742.33 814.15 743.12 C 808.06 745.03 801.56 744.78 795.26 744.86 L 795.76 745.54 C 793.50 743.99 790.58 744.93 788.05 744.76 C 751.28 745.17 714.50 744.93 677.73 745.00 C 657.67 745.09 637.61 744.88 617.56 745.13 C 616.03 739.18 617.35 733.04 616.85 727.01 C 615.82 713.65 615.17 700.26 614.13 686.90 C 598.75 688.07 583.37 689.28 567.97 690.09 C 565.33 686.36 566.95 681.59 566.45 677.38 C 568.39 678.68 570.73 678.65 572.96 678.44 C 586.69 677.28 600.45 676.56 614.18 675.40 C 615.52 694.76 616.59 714.15 618.10 733.50 C 681.14 733.31 744.19 733.97 807.23 732.94 C 807.98 730.70 808.60 728.39 808.49 726.01 C 808.43 710.03 808.56 694.04 808.46 678.06 C 818.30 677.85 828.15 678.17 838.00 677.89 C 843.59 677.14 849.25 677.80 854.86 677.34 C 858.70 675.88 857.20 671.09 857.08 667.99 C 856.87 653.02 857.08 638.04 856.96 623.07 C 868.96 622.24 881.01 622.38 892.99 621.31 C 894.60 621.29 894.89 619.18 894.88 617.96 C 894.21 610.32 894.81 602.64 894.01 595.01 C 894.27 586.21 893.25 577.45 893.45 568.66 C 896.19 566.48 899.79 566.97 903.07 566.75 C 915.65 566.17 928.27 566.01 940.81 564.79 C 943.58 564.70 944.02 561.56 944.74 559.50 C 946.42 552.80 947.43 545.89 947.23 538.98 C 947.25 534.72 946.17 530.54 946.23 526.28 Z" />
<path fill="#000000" opacity="1.00" d=" M 183.49 566.36 C 183.30 564.13 184.27 561.36 187.03 561.69 C 203.03 561.55 219.05 561.67 235.06 561.82 C 236.89 561.60 238.81 563.06 238.58 565.01 C 238.76 581.40 238.53 597.80 238.69 614.19 C 240.10 614.51 241.54 614.70 242.99 614.67 C 257.99 614.59 272.99 614.67 288.00 614.82 C 289.84 614.61 291.83 616.01 291.58 618.01 C 291.74 633.70 291.59 649.39 291.65 665.08 C 291.59 666.65 291.80 668.85 290.02 669.59 C 287.07 670.27 284.01 670.08 281.01 670.12 C 266.98 670.17 252.94 670.14 238.90 670.13 C 236.73 670.14 236.09 667.85 236.35 666.09 C 236.64 650.08 235.99 634.04 236.68 618.05 C 235.61 617.24 234.37 616.88 233.03 617.07 C 217.34 617.21 201.64 617.14 185.96 617.13 C 184.27 617.26 183.15 615.51 183.36 613.98 C 183.50 598.11 183.24 582.23 183.49 566.36 Z" />
<path fill="#000000" opacity="1.00" d=" M 622.49 566.39 C 622.29 564.15 623.27 561.34 626.04 561.69 C 642.01 561.55 657.99 561.67 673.96 561.82 C 675.81 561.59 677.82 563.00 677.58 565.00 C 677.77 581.40 677.52 597.80 677.70 614.19 C 679.41 614.62 681.17 614.70 682.94 614.67 C 697.29 614.56 711.63 614.71 725.98 614.78 C 727.42 614.70 728.96 614.91 730.08 615.94 C 730.81 617.51 730.57 619.29 730.66 620.98 C 730.57 636.31 730.76 651.65 730.56 666.98 C 730.72 670.04 727.14 670.03 724.99 670.07 C 709.27 670.21 693.55 670.13 677.84 670.13 C 675.66 670.08 675.11 667.77 675.35 666.03 C 675.64 650.04 674.98 634.03 675.68 618.07 C 674.63 617.24 673.37 616.89 672.05 617.07 C 656.34 617.21 640.62 617.13 624.91 617.13 C 623.16 617.12 622.12 615.47 622.36 613.86 C 622.50 598.04 622.24 582.21 622.49 566.39 Z" />
<path fill="#000000" opacity="1.00" d=" M 496.13 570.44 C 506.71 570.50 517.29 570.50 527.87 570.45 C 527.95 572.61 528.05 574.77 528.26 576.94 C 528.37 578.64 528.23 580.35 528.04 582.05 C 517.20 582.05 506.35 581.67 495.54 582.27 C 495.49 578.31 496.08 574.39 496.13 570.44 Z" />
<path fill="#000000" opacity="1.00" d=" M 495.04 618.00 C 495.38 611.89 494.63 605.75 495.53 599.68 C 495.29 607.40 496.31 615.18 495.04 622.84 C 494.67 626.66 496.00 631.33 492.94 634.35 C 481.59 635.06 470.25 633.87 458.90 634.00 C 458.89 642.00 458.10 650.00 458.63 657.99 C 458.40 661.40 457.95 664.81 457.97 668.24 C 457.84 665.80 457.76 663.37 457.75 660.94 C 458.59 655.30 457.80 649.60 458.14 643.94 C 458.49 636.80 458.59 629.65 458.51 622.50 C 463.33 622.49 468.16 622.35 472.96 622.89 C 479.63 623.17 486.31 622.88 492.98 623.04 C 493.91 621.46 495.10 619.92 495.04 618.00 Z" />
<path fill="#000000" opacity="1.00" d=" M 529.01 621.28 L 529.34 620.20 C 529.77 620.91 530.64 622.33 531.07 623.04 C 537.73 622.88 544.40 623.17 551.06 622.89 C 555.85 622.34 560.68 622.49 565.50 622.50 C 565.19 633.34 566.29 644.16 565.87 655.00 C 565.72 659.88 566.96 664.72 566.32 669.61 C 565.44 664.77 566.04 659.84 565.73 654.97 C 565.37 649.25 565.40 643.52 565.28 637.80 C 565.01 636.57 565.57 634.48 563.98 634.06 C 553.00 633.51 542.00 634.94 531.03 634.35 C 527.82 630.81 529.30 625.60 529.01 621.28 Z" />
</g>
<g id="#6b6b6bb0">
<path fill="#6b6b6b" opacity="0.69" d=" M 528.26 576.94 C 529.59 584.24 527.66 591.60 528.65 598.92 C 529.66 605.99 528.26 613.14 529.34 620.20 L 529.01 621.28 C 528.25 610.51 528.46 599.69 527.96 588.91 C 527.83 586.62 527.73 584.32 528.04 582.05 C 528.23 580.35 528.37 578.64 528.26 576.94 Z" />
</g>
<g id="#939393f1">
<path fill="#939393" opacity="0.95" d=" M 457.61 676.97 C 457.25 671.64 456.37 666.20 457.75 660.94 C 457.76 663.37 457.84 665.80 457.97 668.24 C 458.04 671.15 457.88 674.06 457.61 676.97 Z" />
</g>
</svg>
